#!OML:ASF I:\Actors\actors\Patient Classification 1\Patient 1\Session 1\Subject1.ASF
:FULLY-SPECIFIED
:DEGREES
761
root -0.890028 17.6524 8.54611 4.28137 25.3017 -8.84574
lowerback 3.74226 8.89724 8.27643
upperback -11.8635 12.8713 -3.27147
thorax -12.5558 5.22848 -9.7323
lowerneck -16.0583 -2.2624 0.0593925
upperneck 18.1427 -6.05319 14.532
head 8.86724 -1.2357 4.2144
rclavicle 1.19668e-013 3.81667e-014
rhumerus 41.3205 31.2049 -79.7872
rradius 40.4526
rwrist -5.29046
rhand 16.876 -61.9182
rfingers 7.12502
rthumb 41.6144 633.364
lclavicle 1.19668e-013 3.81667e-014
lhumerus 34.2352 2.21566 80.9862
lradius 106.85
lwrist 10.706
lhand -44.7844 -30.7359
lfingers 7.12502
lthumb -17.5762 -1.51042
rfemur 4.3031 15.1155 30.7525
rtibia 2.44603
rfoot -27.5045 -37.3118
rtoes 20.971
lfemur -5.36712 -35.6067 -4.50352
ltibia 0.613292
lfoot -3.62777 22.7102
ltoes -22.1416
762
root -0.910792 17.6565 8.5439 3.74519 27.2022 -9.564
lowerback 3.45022 8.46084 8.08933
upperback -11.5167 12.2575 -2.75988
thorax -12.2413 5.01868 -8.94006
lowerneck -15.6999 -2.39088 -0.279282
upperneck 17.0923 -5.98237 14.4778
head 8.44192 -1.31019 4.23008
rclavicle -1.76918e-014 1.90833e-014
rhumerus 42.8887 32.3497 -75.2512
rradius 42.5043
rwrist -9.11155
rhand 14.2125 -58.9866
rfingers 7.12502
rthumb 39.1099 635.525
lclavicle -1.76918e-014 1.90833e-014
lhumerus 31.4951 1.45539 81.0373
lradius 97.9854
lwrist 18.6872
lhand -38.9402 -19.0156
lfingers 7.12502
lthumb -11.946 10.6236
rfemur 4.31767 14.0195 31.5543
rtibia 2.53797
rfoot -28.1639 -37.7485
rtoes 21.8535
lfemur -6.41516 -35.7698 -3.3274
ltibia 1.07447
lfoot -3.65242 21.086
ltoes -22.9502
763
root -0.930041 17.6487 8.53469 3.20029 29.1209 -10.3638
lowerback 3.60876 7.87194 8.16118
upperback -11.4234 11.5241 -2.34686
thorax -12.451 4.66137 -8.51031
lowerneck -15.603 -2.25812 -0.251696
upperneck 16.6343 -5.72769 14.4325
head 8.24605 -1.22351 4.22825
rclavicle 7.5737e-014 1.59028e-015
rhumerus 44.1012 32.981 -70.609
rradius 50.4867
rwrist -23.8565
rhand -1.38672 -61.4339
rfingers 7.12502
rthumb 24.2615 630.081
lclavicle 7.5737e-014 1.59028e-015
lhumerus 29.5762 0.624117 80.9076
lradius 86.9022
lwrist 25.3459
lhand -33.6361 -6.26823
lfingers 7.12502
lthumb -6.82833 23.6017
rfemur 4.22623 12.9797 32.3971
rtibia 2.6186
rfoot -28.7049 -38.428
rtoes 22.0906
lfemur -7.61596 -35.7398 -2.0097
ltibia 1.48921
lfoot -3.77458 19.2665
ltoes -23.6127
764
root -0.947509 17.6323 8.51638 2.74337 30.8942 -11.0704
lowerback 4.00646 7.19358 8.16101
upperback -11.4034 10.6876 -1.98695
thorax -12.9096 4.23552 -8.13441
lowerneck -15.8236 -1.97354 0.0973229
upperneck 16.5295 -5.41383 14.4692
head 8.2208 -1.04435 4.21804
rclavicle -2.70347e-014 9.54166e-015
rhumerus 44.7336 32.005 -67.4513
rradius 58.2646
rwrist -27.7359
rhand -8.43454 -58.6536
rfingers 7.12502
rthumb 17.4907 632.113
lclavicle -2.70347e-014 9.54166e-015
lhumerus 28.8088 -0.587492 79.4715
lradius 74.1722
lwrist 33.6075
lhand -31.9506 6.43819
lfingers 7.12502
lthumb -5.20105 36.3544
rfemur 4.08655 12.3491 33.1573
rtibia 2.61768
rfoot -29.3079 -39.3691
rtoes 22.5772
lfemur -8.82186 -35.7167 -0.805161
ltibia 1.82031
lfoot -3.84975 17.6225
ltoes -24.0224
765
root -0.960293 17.6151 8.49432 2.52134 32.4304 -11.4572
lowerback 4.34201 6.57548 7.86572
upperback -11.3289 9.8754 -1.72394
thorax -13.274 3.85952 -7.67161
lowerneck -16.272 -1.90736 -0.292759
upperneck 16.4813 -5.40481 15.3302
head 8.32942 -0.960441 4.58579
rclavicle 1.32788e-013 0
rhumerus 45.513 29.8808 -64.6531
rradius 65.475
rwrist -20.1639
rhand -7.24884 -54.5906
rfingers 7.12502
rthumb 18.6315 636.282
lclavicle 1.32788e-013 0
lhumerus 29.3986 -1.92682 77.7447
lradius 60.8224
lwrist 51.3773
lhand -31.846 14.7199
lfingers 7.12502
lthumb -5.10004 44.6385
rfemur 3.95864 12.1315 33.6052
rtibia 2.50838
rfoot -30.2216 -40.2969
rtoes 23.9207
lfemur -9.88238 -35.9199 0.000893664
ltibia 1.97209
lfoot -3.76184 16.4465
ltoes -24.4028
766
root -0.964505 17.6059 8.47149 2.54546 33.6318 -11.4742
lowerback 4.68309 6.12563 7.4655
upperback -11.2594 9.25678 -1.62933
thorax -13.5852 3.58434 -7.34013
lowerneck -17.3341 -2.24131 -2.3451
upperneck 16.9053 -5.84361 17.273
head 8.83938 -1.0343 5.59705
rclavicle -6.08281e-014 -5.725e-014
rhumerus 46.2549 26.7173 -61.8008
rradius 73.5491
rwrist -12.835
rhand -7.84825 -50.3971
rfingers 7.12502
rthumb 18.0548 640.421
lclavicle -6.08281e-014 -5.725e-014
lhumerus 30.4313 -4.1609 75.5554
lradius 48.5471
lwrist 71.2446
lhand -34.9067 18.4327
lfingers 7.12502
lthumb -8.05471 48.2592
rfemur 3.84658 12.1064 33.6503
rtibia 2.36079
rfoot -31.1857 -41.052
rtoes 25.2656
lfemur -10.6572 -36.382 0.325097
ltibia 1.90097
lfoot -3.51055 15.8211
ltoes -24.801
767
root -0.956668 17.6093 8.44677 2.66701 34.3926 -11.4805
lowerback 5.02569 5.81592 7.32142
upperback -11.237 8.85155 -1.60643
thorax -13.8665 3.38265 -7.24282
lowerneck -17.7574 -2.29947 -2.54634
upperneck 16.5208 -5.83304 17.2837
head 8.79195 -1.04706 5.62508
rclavicle -2.54444e-014 -1.59028e-015
rhumerus 46.009 22.8552 -62.4685
rradius 80.4531
rwrist -4.98994
rhand -9.18192 -44.994
rfingers 7.12502
rthumb 16.7713 645.71
lclavicle -2.54444e-014 -1.59028e-015
lhumerus 31.3178 -16.3944 66.4566
lradius 41.7217
lwrist 51.9472
lhand -40.0852 40.6436
lfingers 7.12502
lthumb -13.0499 70.2154
rfemur 3.61749 12.0362 33.561
rtibia 2.28188
rfoot -31.7156 -41.492
rtoes 25.9074
lfemur -11.2058 -37.146 0.573286
ltibia 1.72686
lfoot -3.16582 15.8984
ltoes -25.0261
768
root -0.938554 17.6263 8.41891 2.77354 34.6765 -11.7008
lowerback 5.37588 5.5397 7.47732
upperback -11.2458 8.53127 -1.57812
thorax -14.1406 3.18942 -7.31014
lowerneck -18.2562 -2.14605 -2.19722
upperneck 16.7649 -5.83787 17.6817
head 8.98209 -0.942851 5.72396
rclavicle -1.35571e-013 -5.40694e-014
rhumerus 45.6337 19.2435 -65.0513
rradius 86.3911
rwrist 1.24013
rhand -11.0384 -35.7183
rfingers 7.12502
rthumb 14.9835 654.844
lclavicle -1.35571e-013 -5.40694e-014
lhumerus 33.4344 -26.9708 58.556
lradius 34.6057
lwrist 23.4325
lhand -30.204 58.0958
lfingers 7.12502
lthumb -3.51444 88.0466
rfemur 3.22814 11.8433 33.5386
rtibia 2.32232
rfoot -31.7271 -41.4916
rtoes 25.9088
lfemur -11.6457 -37.8287 1.00388
ltibia 1.57292
lfoot -2.86377 16.3446
ltoes -24.9684
769
root -0.915747 17.6491 8.38654 2.90955 34.5621 -12.0197
lowerback 5.6982 5.25451 7.72447
upperback -11.2332 8.21051 -1.50976
thorax -14.3695 2.99215 -7.37248
lowerneck -18.8492 -1.7335 -1.49362
upperneck 16.8261 -5.5728 18.1685
head 9.09595 -0.681363 5.82675
rclavicle -8.38871e-014 -7.95139e-015
rhumerus 45.5152 16.142 -68.3729
rradius 91.1692
rwrist 5.26959
rhand -14.8732 -25.7688
rfingers 7.12502
rthumb 11.2871 664.555
lclavicle -8.38871e-014 -7.95139e-015
lhumerus 35.0318 -27.7395 57.4065
lradius 32.2076
lwrist 37.2289
lhand -38.0786 58.4508
lfingers 7.12502
lthumb -11.1151 88.1364
rfemur 2.74687 11.6388 33.5636
rtibia 2.42132
rfoot -31.2603 -41.3121
rtoes 25.3137
lfemur -12.1003 -37.8933 1.5249
ltibia 1.55172
lfoot -2.69791 16.5171
ltoes -24.927
770
root -0.890539 17.6659 8.35176 3.16658 33.9363 -12.1637
lowerback 5.90328 5.08565 7.7576
upperback -11.1664 8.01428 -1.3544
thorax -14.4733 2.89608 -7.21339
lowerneck -19.6698 -1.27526 -1.41836
upperneck 17.2709 -5.29782 19.3779
head 9.43149 -0.343166 6.33884
rclavicle 3.47873e-014 2.8625e-014
rhumerus 45.4755 14.4255 -70.7441
rradius 94.9692
rwrist 4.1135
rhand -23.86 -22.1604
rfingers 7.12502
rthumb 2.6126 667.876
lclavicle 3.47873e-014 2.8625e-014
lhumerus 33.5084 -25.21 60.3157
lradius 32.4043
lwrist 46.9503
lhand -47.3762 48.6793
lfingers 7.12502
lthumb -20.0689 77.6628
rfemur 2.33482 11.7148 33.4491
rtibia 2.46646
rfoot -30.4921 -41.0937
rtoes 24.4506
lfemur -12.3632 -37.4645 1.79175
ltibia 1.63017
lfoot -2.63071 16.5946
ltoes -24.9116
771
root -0.870742 17.6775 8.31599 3.5028 32.9399 -12.133
lowerback 6.09216 5.09955 7.59577
upperback -11.1399 8.03948 -1.22806
thorax -14.5945 2.92392 -7.0112
lowerneck -20.1429 -1.07872 -1.6435
upperneck 17.6808 -5.27707 20.4942
head 9.7236 -0.17242 6.84175
rclavicle -1.19271e-015 -3.49861e-014
rhumerus 44.7304 13.9235 -71.8334
rradius 96.2046
rwrist 7.95258
rhand -34.5576 -33.3849
rfingers 7.12502
rthumb -7.7178 656.776
lclavicle -1.19271e-015 -3.49861e-014
lhumerus 32.1669 -22.2457 63.1519
lradius 35.555
lwrist 55.5907
lhand -48.5652 39.7536
lfingers 7.12502
lthumb -21.2114 68.6131
rfemur 2.01814 12.2512 33.2473
rtibia 2.42924
rfoot -29.964 -40.9099
rtoes 24.0439
lfemur -12.4694 -36.696 1.86308
ltibia 1.757
lfoot -2.78317 16.642
ltoes -24.2815
772
root -0.860533 17.6837 8.28331 3.84495 31.9781 -12.1572
lowerback 6.2312 5.14476 7.59235
upperback -11.2437 8.10876 -1.32161
thorax -14.7862 2.93178 -7.15202
lowerneck -19.2435 -1.25749 -1.04881
upperneck 16.2046 -5.06467 18.7538
head 8.9205 -0.372217 6.01061
rclavicle 4.77083e-015 7.95139e-015
rhumerus 43.0764 13.2291 -73.2128
rradius 93.2904
rwrist 15.9628
rhand -36.2785 -44.6118
rfingers 7.12502
rthumb -9.37852 645.617
lclavicle 4.77083e-015 7.95139e-015
lhumerus 31.4984 -21.2462 63.7393
lradius 39.7541
lwrist 62.4672
lhand -47.4186 30.4859
lfingers 7.12502
lthumb -20.1096 59.4651
rfemur 1.72573 13.111 33.213
rtibia 2.27655
rfoot -29.6085 -41.0405
rtoes 23.8556
lfemur -12.7265 -35.6271 2.09233
ltibia 1.93644
lfoot -3.14693 16.3518
ltoes -23.3395
773
root -0.851785 17.676 8.25435 4.27321 30.8091 -11.9554
lowerback 6.29917 5.22957 7.50666
upperback -11.3784 8.18775 -1.627
thorax -14.945 2.93922 -7.48012
lowerneck -18.1545 -1.58746 -0.268606
upperneck 15.1543 -5.28827 17.536
head 8.32022 -0.676614 5.34506
rclavicle -2.38542e-014 -3.18055e-015
rhumerus 41.2545 12.8211 -74.4579
rradius 87.1107
rwrist 19.1092
rhand -35.5244 -42.1379
rfingers 7.12502
rthumb -8.65087 648.059
lclavicle -2.38542e-014 -3.18055e-015
lhumerus 31.7861 -23.3252 61.8358
lradius 43.8745
lwrist 60.8669
lhand -48.3566 16.1586
lfingers 7.12502
lthumb -21.011 45.0405
rfemur 1.54136 14.0813 32.9765
rtibia 2.05997
rfoot -28.9967 -41.1228
rtoes 23.4088
lfemur -12.7143 -35.0136 1.98909
ltibia 2.03869
lfoot -3.42866 16.6627
ltoes -22.6468
774
root -0.841504 17.659 8.22232 4.69052 29.2902 -11.5166
lowerback 6.37977 5.44929 7.1116
upperback -11.3908 8.39774 -1.91215
thorax -14.9752 3.05721 -7.62599
lowerneck -17.754 -1.96029 -0.241026
upperneck 14.894 -5.76809 17.588
head 8.21135 -0.931907 5.28346
rclavicle 3.10104e-014 -1.27222e-014
rhumerus 39.7242 12.6173 -75.0481
rradius 77.5665
rwrist 21.2656
rhand -34.0672 -32.4573
rfingers 7.12502
rthumb -7.24441 657.687
lclavicle 3.10104e-014 -1.27222e-014
lhumerus 32.7449 -23.558 61.6116
lradius 49.7745
lwrist 55.3746
lhand -49.6082 13.8876
lfingers 7.12502
lthumb -22.213 42.6312
rfemur 1.43234 14.8515 32.4261
rtibia 1.96721
rfoot -28.0743 -40.723
rtoes 22.7934
lfemur -12.1669 -35.0553 1.38391
ltibia 1.97029
lfoot -3.48087 17.9349
ltoes -22.4463
775
root -0.831088 17.6445 8.18758 4.92862 27.6477 -11.3046
lowerback 6.43482 5.73432 6.73554
upperback -11.2668 8.70575 -2.03451
thorax -14.8283 3.24804 -7.59513
lowerneck -17.8663 -2.36217 -0.814008
upperneck 14.8087 -6.32286 18.3595
head 8.31382 -1.15114 5.58212
rclavicle -2.127e-014 -4.29375e-014
rhumerus 39.7308 13.2173 -74.0273
rradius 65.8598
rwrist 21.8368
rhand -27.7277 -27.5633
rfingers 7.12502
rthumb -1.12292 662.46
lclavicle -2.127e-014 -4.29375e-014
lhumerus 34.1311 -22.8219 62.2571
lradius 55.8849
lwrist 48.2476
lhand -47.0358 7.12768
lfingers 7.12502
lthumb -19.7417 36.1452
rfemur 1.23624 15.3112 32.0238
rtibia 2.0898
rfoot -26.822 -39.9545
rtoes 21.8072
lfemur -11.3514 -35.3024 0.873068
ltibia 1.73229
lfoot -3.38624 19.6067
ltoes -22.3191
